<?xml version="1.0" encoding="UTF-8"?>
<!-- Generated by Pixelmator Pro 3.3.2 -->
<svg width="50" height="50" viewBox="0 0 50 50" xmlns="http://www.w3.org/2000/svg" xmlns:xlink="http://www.w3.org/1999/xlink">
    <path id="path1" fill="#000000" fill-rule="evenodd" stroke="none" d="M 7.3415 21.129375 L 24.998751 39.582497 L 42.656876 21.129375 C 32.527084 12.401333 17.471188 12.401356 7.3415 21.129375 Z M 2.902062 19.569584 C 15.105959 7.365688 34.892292 7.365688 47.096249 19.569584 C 47.897293 20.370541 47.911457 21.664583 47.12833 22.483124 L 27.977083 42.496876 L 27.945 42.529583 C 26.317917 44.156872 23.67979 44.156872 22.0525 42.529583 L 22.020418 42.496876 L 2.869958 22.483124 C 2.086854 21.664583 2.101125 20.370522 2.902062 19.569584 Z M 27.604166 32.291664 C 27.604166 33.729996 26.438334 34.895832 25 34.895832 C 23.561666 34.895832 22.395834 33.729996 22.395834 32.291664 C 22.395834 30.853333 23.561666 29.6875 25 29.6875 C 26.438334 29.6875 27.604166 30.853333 27.604166 32.291664 Z M 27.083334 18.75 C 27.083334 17.599415 26.150625 16.666668 25 16.666668 C 23.849375 16.666668 22.916666 17.599415 22.916666 18.75 L 22.916666 25 C 22.916666 26.150625 23.849375 27.083334 25 27.083334 C 26.150625 27.083334 27.083334 26.150625 27.083334 25 L 27.083334 18.75 Z"/>
</svg>
