<?xml version="1.0" encoding="UTF-8" standalone="no"?>
<!DOCTYPE svg PUBLIC "-//W3C//DTD SVG 1.1//EN" "http://www.w3.org/Graphics/SVG/1.1/DTD/svg11.dtd">
<svg width="100%" height="100%" viewBox="0 0 16 20" version="1.1" xmlns="http://www.w3.org/2000/svg" xmlns:xlink="http://www.w3.org/1999/xlink" xml:space="preserve" xmlns:serif="http://www.serif.com/" style="fill-rule:evenodd;clip-rule:evenodd;stroke-linejoin:round;stroke-miterlimit:2;">
    <path d="M13.66,6L8,0.35L2.34,6C0.78,7.56 0,9.64 0,11.64C0,13.64 0.78,15.75 2.34,17.31C3.9,18.87 5.95,19.66 8,19.66C10.05,19.66 12.1,18.87 13.66,17.31C15.22,15.75 16,13.64 16,11.64C16,9.64 15.22,7.56 13.66,6ZM2,12C2.01,10 2.62,8.73 3.76,7.6L8,3.27L12.24,7.65C13.38,8.77 13.99,10 14,12L2,12Z" style="fill-rule:nonzero;"/>
</svg>
