<?xml version="1.0" encoding="UTF-8" standalone="no"?>
<!DOCTYPE svg PUBLIC "-//W3C//DTD SVG 1.1//EN" "http://www.w3.org/Graphics/SVG/1.1/DTD/svg11.dtd">
<svg width="100%" height="100%" viewBox="0 0 22 22" version="1.1" xmlns="http://www.w3.org/2000/svg" xmlns:xlink="http://www.w3.org/1999/xlink" xml:space="preserve" xmlns:serif="http://www.serif.com/" style="fill-rule:evenodd;clip-rule:evenodd;stroke-linejoin:round;stroke-miterlimit:2;">
    <path d="M11,7C8.79,7 7,8.79 7,11C7,13.21 8.79,15 11,15C13.21,15 15,13.21 15,11C15,8.79 13.21,7 11,7ZM19.94,10C19.48,5.83 16.17,2.52 12,2.06L12,0L10,0L10,2.06C5.83,2.52 2.52,5.83 2.06,10L0,10L0,12L2.06,12C2.52,16.17 5.83,19.48 10,19.94L10,22L12,22L12,19.94C16.17,19.48 19.48,16.17 19.94,12L22,12L22,10L19.94,10ZM11,18C7.13,18 4,14.87 4,11C4,7.13 7.13,4 11,4C14.87,4 18,7.13 18,11C18,14.87 14.87,18 11,18Z" style="fill-rule:nonzero;"/>
</svg>
