<?xml version="1.0" encoding="UTF-8"?>
<!-- Generated by Pixelmator Pro 3.3.2 -->
<svg width="50" height="50" viewBox="0 0 50 50" xmlns="http://www.w3.org/2000/svg" xmlns:xlink="http://www.w3.org/1999/xlink">
    <g id="g1">
        <path id="path1" fill="#000000" stroke="none" d="M 33.363365 10.752308 C 33.363365 9.797924 32.58963 9.024197 31.635252 9.024197 L 1.728111 9.024197 C 0.773733 9.024197 0 9.797924 0 10.752308 C 0 11.706684 0.773733 12.480415 1.728111 12.480415 L 31.635252 12.480415 C 32.58963 12.480415 33.363365 11.706684 33.363365 10.752308 Z"/>
        <path id="path2" fill="#000000" stroke="none" d="M 48.370968 16.123272 L 13.509678 16.123272 C 12.5553 16.123272 11.781567 16.897007 11.781567 17.851383 C 11.781567 18.805761 12.5553 19.579494 13.509678 19.579494 L 48.370968 19.579494 C 49.325348 19.579494 50.099075 18.805761 50.099075 17.851383 C 50.099075 16.897007 49.325348 16.123272 48.370968 16.123272 Z"/>
        <path id="path3" fill="#000000" stroke="none" d="M 40.214287 26.678341 C 41.168663 26.678341 41.942394 25.90461 41.942394 24.95023 C 41.942394 23.995852 41.168663 23.222118 40.214287 23.222118 L 5.171889 23.222118 C 4.217512 23.222118 3.443779 23.995852 3.443779 24.95023 C 3.443779 25.90461 4.217512 26.678341 5.171889 26.678341 L 40.214287 26.678341 Z"/>
        <path id="path4" fill="#000000" stroke="none" d="M 45.954147 30.321199 L 10.972119 30.321199 C 10.017742 30.321199 9.244009 31.094933 9.244009 32.049309 C 9.244009 33.003685 10.017742 33.77742 10.972119 33.77742 L 45.954147 33.77742 C 46.908524 33.77742 47.682259 33.003685 47.682259 32.049309 C 47.682259 31.094933 46.908524 30.321199 45.954147 30.321199 Z"/>
        <path id="path5" fill="#000000" stroke="none" d="M 28.976728 37.420509 L 5.776037 37.420509 C 4.821659 37.420509 4.047926 38.194237 4.047926 39.148621 C 4.047926 40.102997 4.821659 40.876732 5.776037 40.876732 L 28.976498 40.876732 C 29.930874 40.876732 30.704607 40.102997 30.704607 39.148621 C 30.70484 38.194237 29.931107 37.420509 28.976728 37.420509 Z"/>
    </g>
</svg>
