<?xml version="1.0" encoding="UTF-8" standalone="no"?>
<!DOCTYPE svg PUBLIC "-//W3C//DTD SVG 1.1//EN" "http://www.w3.org/Graphics/SVG/1.1/DTD/svg11.dtd">
<svg width="100%" height="100%" viewBox="0 0 22 22" version="1.1" xmlns="http://www.w3.org/2000/svg" xmlns:xlink="http://www.w3.org/1999/xlink" xml:space="preserve" xmlns:serif="http://www.serif.com/" style="fill-rule:evenodd;clip-rule:evenodd;stroke-linejoin:round;stroke-miterlimit:2;">
    <path d="M15.663,13.87L14.718,13.87L14.384,13.547C15.555,12.184 16.261,10.414 16.261,8.489C16.261,4.197 12.782,0.717 8.489,0.717C4.197,0.717 0.717,4.197 0.717,8.489C0.717,12.782 4.197,16.261 8.489,16.261C10.414,16.261 12.184,15.555 13.547,14.384L13.87,14.718L13.87,15.663L19.848,21.629L21.629,19.848L15.663,13.87ZM8.489,13.87C5.512,13.87 3.109,11.466 3.109,8.489C3.109,5.512 5.512,3.109 8.489,3.109C11.466,3.109 13.87,5.512 13.87,8.489C13.87,11.466 11.466,13.87 8.489,13.87Z" style="fill-rule:nonzero;"/>
</svg>
