<?xml version="1.0" encoding="UTF-8"?>
<!-- Generated by Pixelmator Pro 3.3.2 -->
<svg width="50" height="50" viewBox="0 0 50 50" xmlns="http://www.w3.org/2000/svg" xmlns:xlink="http://www.w3.org/1999/xlink">
    <path id="path1" fill="#000000" stroke="none" d="M 30.180208 13.725063 C 30.856876 13.189419 30.971043 12.206707 30.435417 11.530148 C 29.899792 10.853561 28.917084 10.739292 28.240625 11.274937 L 30.180208 13.725063 Z M 24.030209 14.608273 C 23.35354 15.143917 23.239374 16.126625 23.775 16.803188 C 24.310625 17.479771 25.293335 17.59404 25.969791 17.058395 L 24.030209 14.608273 Z M 24.030209 17.058395 C 24.706665 17.59404 25.689375 17.479771 26.225 16.803188 C 26.760626 16.126625 26.64646 15.143917 25.969791 14.608273 L 24.030209 17.058395 Z M 21.759375 11.274937 C 21.082916 10.739292 20.100166 10.853561 19.564522 11.530148 C 19.028873 12.206707 19.143147 13.189419 19.819729 13.725063 L 21.759375 11.274937 Z M 23.4375 15.833332 C 23.4375 16.69627 24.137083 17.395836 25 17.395836 C 25.862917 17.395836 26.5625 16.69627 26.5625 15.833332 L 23.4375 15.833332 Z M 26.5625 8.333332 C 26.5625 7.470394 25.862917 6.770832 25 6.770832 C 24.137083 6.770832 23.4375 7.470394 23.4375 8.333332 L 26.5625 8.333332 Z M 26.5625 15.833332 C 26.5625 14.970394 25.862917 14.270832 25 14.270832 C 24.137083 14.270832 23.4375 14.970394 23.4375 15.833332 L 26.5625 15.833332 Z M 23.4375 34.166664 C 23.4375 35.029583 24.137083 35.729164 25 35.729164 C 25.862917 35.729164 26.5625 35.029583 26.5625 34.166664 L 23.4375 34.166664 Z M 19.819729 36.275002 C 19.143147 36.810623 19.028873 37.793335 19.564522 38.469791 C 20.100166 39.146461 21.082916 39.260628 21.759375 38.724998 L 19.819729 36.275002 Z M 25.969791 35.39167 C 26.64646 34.856041 26.760626 33.873329 26.225 33.196877 C 25.689375 32.52021 24.706665 32.406044 24.030209 32.941666 L 25.969791 35.39167 Z M 25.969791 32.941666 C 25.293335 32.406044 24.310625 32.52021 23.775 33.196877 C 23.239374 33.873329 23.35354 34.856041 24.030209 35.39167 L 25.969791 32.941666 Z M 28.240625 38.724998 C 28.917084 39.260628 29.899792 39.146461 30.435417 38.469791 C 30.971043 37.793335 30.856876 36.810623 30.180208 36.275002 L 28.240625 38.724998 Z M 26.5625 34.166664 C 26.5625 33.303749 25.862917 32.604164 25 32.604164 C 24.137083 32.604164 23.4375 33.303749 23.4375 34.166664 L 26.5625 34.166664 Z M 23.4375 41.666668 C 23.4375 42.529583 24.137083 43.229168 25 43.229168 C 25.862917 43.229168 26.5625 42.529583 26.5625 41.666668 L 23.4375 41.666668 Z M 12.521916 26.184374 C 11.717062 25.873125 10.812271 26.273335 10.501021 27.078125 C 10.18975 27.882915 10.589895 28.787708 11.39475 29.098957 L 12.521916 26.184374 Z M 16.415583 31.040625 C 17.220438 31.351873 18.125231 30.951668 18.43648 30.146875 C 18.747751 29.342083 18.347605 28.437292 17.542749 28.126041 L 16.415583 31.040625 Z M 18.523458 29.821251 C 18.654833 28.968334 18.069918 28.170416 17.21702 28.03896 C 16.364147 27.907709 15.56625 28.4925 15.434875 29.345417 L 18.523458 29.821251 Z M 14.622375 34.620415 C 14.491 35.473335 15.075917 36.271248 15.928813 36.40271 C 16.781689 36.533958 17.579584 35.949165 17.710958 35.096252 L 14.622375 34.620415 Z M 17.754375 30.940001 C 18.503624 30.511875 18.763937 29.557291 18.335791 28.808125 C 17.907646 28.058958 16.953188 27.798542 16.203959 28.226667 L 17.754375 30.940001 Z M 9.641459 31.976665 C 8.892208 32.404793 8.631896 33.359375 9.060042 34.108543 C 9.488187 34.857712 10.442645 35.118126 11.191875 34.689999 L 9.641459 31.976665 Z M 16.203959 28.226667 C 15.454708 28.654793 15.194396 29.609375 15.622541 30.358541 C 16.050688 31.107708 17.005146 31.368124 17.754375 30.940001 L 16.203959 28.226667 Z M 33.79604 21.773333 C 34.545208 21.345207 34.805622 20.390688 34.377499 19.641459 C 33.949375 18.892208 32.994789 18.631895 32.245625 19.060041 L 33.79604 21.773333 Z M 37.478127 23.815626 C 38.282913 24.126875 39.18771 23.726665 39.498959 22.921875 C 39.810207 22.117085 39.41 21.212292 38.605209 20.901043 L 37.478127 23.815626 Z M 33.584377 18.959352 C 32.779583 18.648085 31.874792 19.048229 31.563541 19.853083 C 31.252291 20.657936 31.6525 21.562708 32.457291 21.873959 L 33.584377 18.959352 Z M 31.476458 20.178791 C 31.345209 21.031666 31.93 21.829584 32.782917 21.96104 C 33.635834 22.092291 34.43375 21.5075 34.565205 20.654541 L 31.476458 20.178791 Z M 35.377708 15.37952 C 35.508957 14.526646 34.924164 13.728748 34.071251 13.597374 C 33.218334 13.466 32.420418 14.050919 32.28896 14.903812 L 35.377708 15.37952 Z M 32.245625 19.060041 C 31.49646 19.488165 31.236042 20.442646 31.664167 21.191875 C 32.092293 21.941042 33.046875 22.201458 33.79604 21.773333 L 32.245625 19.060041 Z M 40.358543 18.023293 C 41.107712 17.595146 41.368126 16.64069 40.939999 15.89146 C 40.511875 15.142208 39.557289 14.881897 38.808125 15.310043 L 40.358543 18.023293 Z M 11.39475 20.901043 C 10.589895 21.212292 10.18975 22.117085 10.501021 22.921875 C 10.812271 23.726665 11.717062 24.126875 12.521916 23.815626 L 11.39475 20.901043 Z M 17.542749 21.873959 C 18.347605 21.562708 18.747751 20.657936 18.43648 19.853083 C 18.125231 19.048229 17.220438 18.648085 16.415583 18.959352 L 17.542749 21.873959 Z M 15.434875 20.654541 C 15.56625 21.5075 16.364147 22.092291 17.21702 21.96104 C 18.069918 21.829584 18.654833 21.031666 18.523458 20.178791 L 15.434875 20.654541 Z M 17.710958 14.903812 C 17.579584 14.050919 16.781689 13.466 15.928813 13.597374 C 15.075917 13.728748 14.491 14.526646 14.622375 15.37952 L 17.710958 14.903812 Z M 16.203959 21.773333 C 16.953188 22.201458 17.907646 21.941042 18.335791 21.191875 C 18.763937 20.442646 18.503624 19.488165 17.754375 19.060041 L 16.203959 21.773333 Z M 11.191875 15.310043 C 10.442645 14.881897 9.488187 15.142208 9.060042 15.89146 C 8.631896 16.64069 8.892208 17.595146 9.641459 18.023293 L 11.191875 15.310043 Z M 17.754375 19.060041 C 17.005146 18.631895 16.050688 18.892208 15.622541 19.641459 C 15.194396 20.390688 15.454708 21.345207 16.203959 21.773333 L 17.754375 19.060041 Z M 32.245625 30.940001 C 32.994789 31.368124 33.949375 31.107708 34.377499 30.358541 C 34.805622 29.609375 34.545208 28.654793 33.79604 28.226667 L 32.245625 30.940001 Z M 38.605209 29.098957 C 39.41 28.787708 39.810207 27.882915 39.498959 27.078125 C 39.18771 26.273335 38.282913 25.873125 37.478127 26.184374 L 38.605209 29.098957 Z M 32.457291 28.126041 C 31.6525 28.437292 31.252291 29.342083 31.563541 30.146875 C 31.874792 30.951668 32.779583 31.351873 33.584377 31.040625 L 32.457291 28.126041 Z M 34.565205 29.345417 C 34.43375 28.4925 33.635834 27.907709 32.782917 28.03896 C 31.93 28.170416 31.345209 28.968334 31.476458 29.821251 L 34.565205 29.345417 Z M 32.28896 35.096252 C 32.420418 35.949165 33.218334 36.533958 34.071251 36.40271 C 34.924164 36.271248 35.508957 35.473335 35.377708 34.620415 L 32.28896 35.096252 Z M 33.79604 28.226667 C 33.046875 27.798542 32.092293 28.058958 31.664167 28.808125 C 31.236042 29.557291 31.49646 30.511875 32.245625 30.940001 L 33.79604 28.226667 Z M 38.808125 34.689999 C 39.557289 35.118126 40.511875 34.857712 40.939999 34.108543 C 41.368126 33.359375 41.107712 32.404793 40.358543 31.976665 L 38.808125 34.689999 Z M 28.240625 11.274937 L 24.030209 14.608273 L 25.969791 17.058395 L 30.180208 13.725063 L 28.240625 11.274937 Z M 25.969791 14.608273 L 21.759375 11.274937 L 19.819729 13.725063 L 24.030209 17.058395 L 25.969791 14.608273 Z M 26.5625 15.833332 L 26.5625 8.333332 L 23.4375 8.333332 L 23.4375 15.833332 L 26.5625 15.833332 Z M 23.4375 15.833332 L 23.4375 34.166664 L 26.5625 34.166664 L 26.5625 15.833332 L 23.4375 15.833332 Z M 21.759375 38.724998 L 25.969791 35.39167 L 24.030209 32.941666 L 19.819729 36.275002 L 21.759375 38.724998 Z M 24.030209 35.39167 L 28.240625 38.724998 L 30.180208 36.275002 L 25.969791 32.941666 L 24.030209 35.39167 Z M 23.4375 34.166664 L 23.4375 41.666668 L 26.5625 41.666668 L 26.5625 34.166664 L 23.4375 34.166664 Z M 11.39475 29.098957 L 16.415583 31.040625 L 17.542749 28.126041 L 12.521916 26.184374 L 11.39475 29.098957 Z M 15.434875 29.345417 L 14.622375 34.620415 L 17.710958 35.096252 L 18.523458 29.821251 L 15.434875 29.345417 Z M 16.203959 28.226667 L 9.641459 31.976665 L 11.191875 34.689999 L 17.754375 30.940001 L 16.203959 28.226667 Z M 17.754375 30.940001 L 33.79604 21.773333 L 32.245625 19.060041 L 16.203959 28.226667 L 17.754375 30.940001 Z M 38.605209 20.901043 L 33.584377 18.959352 L 32.457291 21.873959 L 37.478127 23.815626 L 38.605209 20.901043 Z M 34.565205 20.654541 L 35.377708 15.37952 L 32.28896 14.903812 L 31.476458 20.178791 L 34.565205 20.654541 Z M 33.79604 21.773333 L 40.358543 18.023293 L 38.808125 15.310043 L 32.245625 19.060041 L 33.79604 21.773333 Z M 12.521916 23.815626 L 17.542749 21.873959 L 16.415583 18.959352 L 11.39475 20.901043 L 12.521916 23.815626 Z M 18.523458 20.178791 L 17.710958 14.903812 L 14.622375 15.37952 L 15.434875 20.654541 L 18.523458 20.178791 Z M 17.754375 19.060041 L 11.191875 15.310043 L 9.641459 18.023293 L 16.203959 21.773333 L 17.754375 19.060041 Z M 16.203959 21.773333 L 32.245625 30.940001 L 33.79604 28.226667 L 17.754375 19.060041 L 16.203959 21.773333 Z M 37.478127 26.184374 L 32.457291 28.126041 L 33.584377 31.040625 L 38.605209 29.098957 L 37.478127 26.184374 Z M 31.476458 29.821251 L 32.28896 35.096252 L 35.377708 34.620415 L 34.565205 29.345417 L 31.476458 29.821251 Z M 32.245625 30.940001 L 38.808125 34.689999 L 40.358543 31.976665 L 33.79604 28.226667 L 32.245625 30.940001 Z"/>
</svg>
