<?xml version="1.0" encoding="UTF-8" standalone="no"?>
<!DOCTYPE svg PUBLIC "-//W3C//DTD SVG 1.1//EN" "http://www.w3.org/Graphics/SVG/1.1/DTD/svg11.dtd">
<svg width="100%" height="100%" viewBox="0 0 10 20" version="1.1" xmlns="http://www.w3.org/2000/svg" xmlns:xlink="http://www.w3.org/1999/xlink" xml:space="preserve" xmlns:serif="http://www.serif.com/" style="fill-rule:evenodd;clip-rule:evenodd;stroke-linejoin:round;stroke-miterlimit:2;">
    <path d="M8,11L8,3C8,1.34 6.66,0 5,0C3.34,0 2,1.34 2,3L2,11C0.79,11.91 0,13.37 0,15C0,17.76 2.24,20 5,20C7.76,20 10,17.76 10,15C10,13.37 9.21,11.91 8,11ZM4,3C4,2.45 4.45,2 5,2C5.55,2 6,2.45 6,3L5,3L5,4L6,4L6,6L5,6L5,7L6,7L6,9L4,9L4,3Z" style="fill-rule:nonzero;"/>
</svg>
