<?xml version="1.0" encoding="UTF-8" standalone="no"?>
<!DOCTYPE svg PUBLIC "-//W3C//DTD SVG 1.1//EN" "http://www.w3.org/Graphics/SVG/1.1/DTD/svg11.dtd">
<svg width="100%" height="100%" viewBox="0 0 36 36" version="1.1" xmlns="http://www.w3.org/2000/svg" xmlns:xlink="http://www.w3.org/1999/xlink" xml:space="preserve" xmlns:serif="http://www.serif.com/" style="fill-rule:evenodd;clip-rule:evenodd;stroke-linejoin:round;stroke-miterlimit:2;">
    <g id="Слой-2" serif:id="Слой 2">
        <g transform="matrix(1,0,0,1,6.6045,8.9964)">
            <path d="M0,1.196C0,-2.616 2.501,-5.84 5.956,-6.92C5.147,-7.176 4.296,-7.312 3.403,-7.312C-1.293,-7.312 -5.104,-3.5 -5.104,1.196C-5.104,4.308 -3.425,7.025 -0.928,8.508C-0.507,7.288 0.167,6.185 1.04,5.268C0.379,4.058 0,2.673 0,1.196" style="fill-rule:nonzero;"/>
        </g>
        <g transform="matrix(1,0,0,1,29.5645,20.3875)">
            <path d="M0,-4.532C-0.786,-8.521 -4.29,-11.516 -8.499,-11.516C-11.84,-11.516 -14.743,-9.62 -16.188,-6.845C-17.999,-6.652 -19.596,-5.757 -20.715,-4.443C-21.305,-3.752 -21.759,-2.945 -22.042,-2.059C-22.254,-1.394 -22.374,-0.688 -22.374,0.047C-22.374,3.874 -19.264,6.984 -15.436,6.984L-12.64,6.984C-12.642,6.955 -12.648,6.927 -12.648,6.898L-12.648,4.672L-15.436,4.672C-17.992,4.672 -20.062,2.602 -20.062,0.047C-20.062,-0.571 -19.936,-1.157 -19.716,-1.696C-19.525,-2.164 -19.25,-2.583 -18.925,-2.96C-18.077,-3.943 -16.837,-4.578 -15.436,-4.578L-14.615,-4.578C-13.852,-7.249 -11.413,-9.203 -8.499,-9.203C-4.983,-9.203 -2.139,-6.359 -2.139,-2.844L-2.139,-2.266L-0.405,-2.266C1.515,-2.266 3.064,-0.717 3.064,1.203C3.064,3.122 1.515,4.672 -0.405,4.672L-2.15,4.672C-2.167,4.868 -2.217,5.063 -2.319,5.239L-3.338,6.984L-0.405,6.984C2.787,6.984 5.376,4.394 5.376,1.203C5.376,-1.849 3.006,-4.324 0,-4.532" style="fill-rule:nonzero;"/>
        </g>
        <g transform="matrix(1,0,0,1,24.6587,25.6376)">
            <path d="M0,1.734L1.349,-0.579L1.417,-0.694L-1.706,-0.694L-1.262,-1.581L1.129,-6.363L1.417,-6.938L-6.388,-6.938L-6.388,1.648L-4.047,1.648L-4.047,8.672L-1.17,3.741L-0.585,2.737L0,1.734Z" style="fill-rule:nonzero;"/>
        </g>
        <g transform="matrix(1,0,0,1,18.2334,34.1703)">
            <path d="M0,-3.119L-1.183,-2.649C-1.575,-2.49 -1.884,-2.353 -2.083,-2.063L-2.083,-2.062C-2.281,-1.772 -2.377,-1.389 -2.306,-1.007C-2.234,-0.625 -2.015,-0.307 -1.718,-0.104C-1.42,0.1 -1.044,0.189 -0.662,0.117C-0.281,0.046 0.042,-0.183 0.241,-0.473C0.439,-0.764 0.468,-1.37 0.475,-1.525L0.475,-3.308L0.394,-3.276L0,-3.119Z" style="fill-rule:nonzero;"/>
        </g>
        <g transform="matrix(1,0,0,1,26.2593,34.1703)">
            <path d="M0,-3.119L-1.183,-2.649C-1.575,-2.49 -1.884,-2.353 -2.083,-2.063L-2.083,-2.062C-2.281,-1.772 -2.377,-1.389 -2.306,-1.007C-2.234,-0.625 -2.015,-0.307 -1.718,-0.104C-1.42,0.1 -1.044,0.189 -0.663,0.117C-0.281,0.046 0.042,-0.183 0.241,-0.473C0.439,-0.764 0.468,-1.37 0.475,-1.525L0.475,-3.308L0.394,-3.276L0,-3.119Z" style="fill-rule:nonzero;"/>
        </g>
    </g>
</svg>
