<?xml version="1.0" encoding="UTF-8" standalone="no"?>
<!DOCTYPE svg PUBLIC "-//W3C//DTD SVG 1.1//EN" "http://www.w3.org/Graphics/SVG/1.1/DTD/svg11.dtd">
<svg width="100%" height="100%" viewBox="0 0 36 36" version="1.1" xmlns="http://www.w3.org/2000/svg" xmlns:xlink="http://www.w3.org/1999/xlink" xml:space="preserve" xmlns:serif="http://www.serif.com/" style="fill-rule:evenodd;clip-rule:evenodd;stroke-linejoin:round;stroke-miterlimit:2;">
    <g id="Слой-2" serif:id="Слой 2">
        <g transform="matrix(1,0,0,1,5.2842,7.8392)">
            <path d="M0,2.61C0,0 2.121,-2.121 4.731,-2.121C6.835,-2.121 8.6,-0.734 9.214,1.167C9.799,0.728 10.428,0.359 11.09,0.049L11.041,0L11.041,-3.699L7.342,-3.699L4.731,-6.309L2.121,-3.699L-1.577,-3.699L-1.577,0L-4.187,2.61L-1.577,5.22L-1.577,8.919L0.516,8.919C0.911,8.04 1.446,7.237 2.092,6.536C0.831,5.685 0,4.244 0,2.61" style="fill-rule:nonzero;"/>
        </g>
        <g transform="matrix(1,0,0,1,29.3945,20.3875)">
            <path d="M0,-4.532C-0.786,-8.521 -4.29,-11.516 -8.499,-11.516C-9.552,-11.516 -10.552,-11.309 -11.486,-10.965C-12.757,-10.495 -13.895,-9.752 -14.806,-8.783C-15.35,-8.205 -15.818,-7.555 -16.187,-6.845C-17.593,-6.695 -18.868,-6.12 -19.894,-5.259C-20.573,-4.687 -21.141,-3.99 -21.561,-3.201C-22.077,-2.231 -22.374,-1.127 -22.374,0.047C-22.374,3.874 -19.263,6.984 -15.436,6.984L-12.65,6.984C-12.652,6.955 -12.659,6.927 -12.659,6.898L-12.659,4.672L-15.436,4.672C-17.991,4.672 -20.061,2.602 -20.061,0.047C-20.061,-0.475 -19.956,-0.969 -19.796,-1.436C-19.724,-1.65 -19.638,-1.854 -19.536,-2.052C-18.77,-3.546 -17.231,-4.578 -15.436,-4.578L-14.615,-4.578C-14.323,-5.599 -13.784,-6.512 -13.07,-7.254C-11.915,-8.454 -10.299,-9.203 -8.499,-9.203C-4.983,-9.203 -2.139,-6.359 -2.139,-2.844L-2.139,-2.266L-0.405,-2.266C1.515,-2.266 3.064,-0.717 3.064,1.203C3.064,3.122 1.515,4.672 -0.405,4.672L-2.16,4.672C-2.177,4.868 -2.227,5.063 -2.33,5.239L-3.348,6.984L-0.405,6.984C2.787,6.984 5.376,4.394 5.376,1.203C5.376,-1.849 3.006,-4.324 0,-4.532" style="fill-rule:nonzero;"/>
        </g>
        <g transform="matrix(1,0,0,1,24.4785,25.6376)">
            <path d="M0,1.734L1.349,-0.579L1.417,-0.694L-1.705,-0.694L-1.262,-1.581L-0.76,-2.585L1.133,-6.37L1.417,-6.938L-6.388,-6.938L-6.388,1.648L-4.047,1.648L-4.047,8.672L-1.17,3.741L-0.585,2.737L0,1.734Z" style="fill-rule:nonzero;"/>
        </g>
        <g transform="matrix(1,0,0,1,18.0635,34.1703)">
            <path d="M0,-3.119L-1.183,-2.649C-1.575,-2.49 -1.884,-2.353 -2.083,-2.063C-2.281,-1.772 -2.377,-1.389 -2.306,-1.007C-2.234,-0.625 -2.015,-0.307 -1.717,-0.104C-1.42,0.1 -1.043,0.189 -0.662,0.117C-0.281,0.046 0.042,-0.183 0.241,-0.473C0.439,-0.764 0.468,-1.37 0.475,-1.525L0.475,-3.308L0.394,-3.276L0,-3.119Z" style="fill-rule:nonzero;"/>
        </g>
        <g transform="matrix(1,0,0,1,26.0894,34.1703)">
            <path d="M0,-3.119L-1.182,-2.649C-1.575,-2.49 -1.883,-2.353 -2.083,-2.063L-2.083,-2.062C-2.281,-1.772 -2.377,-1.389 -2.306,-1.007C-2.234,-0.625 -2.015,-0.307 -1.717,-0.104C-1.42,0.1 -1.043,0.189 -0.662,0.117C-0.281,0.046 0.042,-0.183 0.241,-0.473C0.439,-0.764 0.468,-1.37 0.475,-1.525L0.475,-3.308L0.394,-3.276L0,-3.119Z" style="fill-rule:nonzero;"/>
        </g>
    </g>
</svg>
