<?xml version="1.0" encoding="UTF-8" standalone="no"?>
<!DOCTYPE svg PUBLIC "-//W3C//DTD SVG 1.1//EN" "http://www.w3.org/Graphics/SVG/1.1/DTD/svg11.dtd">
<svg width="100%" height="100%" viewBox="0 0 36 36" version="1.1" xmlns="http://www.w3.org/2000/svg" xmlns:xlink="http://www.w3.org/1999/xlink" xml:space="preserve" xmlns:serif="http://www.serif.com/" style="fill-rule:evenodd;clip-rule:evenodd;stroke-linejoin:round;stroke-miterlimit:2;">
    <g transform="matrix(1,0,0,1,18.1738,10.9321)">
        <g id="Слой-2" serif:id="Слой 2">
            <path d="M0,13.875C-3.827,13.875 -6.937,10.765 -6.937,6.938C-6.937,3.11 -3.827,0 0,0C3.827,0 6.937,3.11 6.937,6.938C6.937,10.765 3.827,13.875 0,13.875M9.25,3.11L9.25,-2.312L3.827,-2.312L0,-6.14L-3.827,-2.312L-9.25,-2.312L-9.25,3.11L-13.077,6.938L-9.25,10.765L-9.25,16.188L-3.827,16.188L0,20.015L3.827,16.188L9.25,16.188L9.25,10.765L13.077,6.938L9.25,3.11Z" style="fill-rule:nonzero;"/>
        </g>
    </g>
</svg>
