<?xml version="1.0" encoding="UTF-8" standalone="no"?>
<!DOCTYPE svg PUBLIC "-//W3C//DTD SVG 1.1//EN" "http://www.w3.org/Graphics/SVG/1.1/DTD/svg11.dtd">
<svg width="100%" height="100%" viewBox="0 0 36 36" version="1.1" xmlns="http://www.w3.org/2000/svg" xmlns:xlink="http://www.w3.org/1999/xlink" xml:space="preserve" xmlns:serif="http://www.serif.com/" style="fill-rule:evenodd;clip-rule:evenodd;stroke-linejoin:round;stroke-miterlimit:2;">
    <g id="Слой-2" serif:id="Слой 2">
        <g transform="matrix(1,0,0,1,6.6045,8.1517)">
            <path d="M0,1.196C0,-2.616 2.501,-5.84 5.956,-6.921C5.147,-7.176 4.296,-7.312 3.403,-7.312C-1.293,-7.312 -5.104,-3.5 -5.104,1.196C-5.104,4.308 -3.425,7.024 -0.928,8.508C-0.508,7.288 0.167,6.185 1.04,5.268C0.379,4.058 0,2.673 0,1.196" style="fill-rule:nonzero;"/>
        </g>
        <g transform="matrix(1,0,0,1,29.5645,19.5427)">
            <path d="M0,-4.532C-0.786,-8.521 -4.29,-11.516 -8.499,-11.516C-11.84,-11.516 -14.743,-9.62 -16.188,-6.845C-17.999,-6.652 -19.596,-5.758 -20.715,-4.444C-21.305,-3.752 -21.759,-2.945 -22.042,-2.059C-22.254,-1.394 -22.374,-0.688 -22.374,0.046C-22.374,3.873 -19.264,6.984 -15.436,6.984L-12.64,6.984C-12.642,6.954 -12.648,6.927 -12.648,6.898L-12.648,4.671L-15.436,4.671C-17.992,4.671 -20.062,2.602 -20.062,0.046C-20.062,-0.571 -19.936,-1.158 -19.716,-1.696C-19.525,-2.165 -19.25,-2.584 -18.925,-2.961C-18.077,-3.943 -16.837,-4.579 -15.436,-4.579L-14.615,-4.579C-13.852,-7.25 -11.413,-9.204 -8.499,-9.204C-4.983,-9.204 -2.139,-6.359 -2.139,-2.845L-2.139,-2.266L-0.405,-2.266C1.515,-2.266 3.064,-0.717 3.064,1.202C3.064,3.122 1.515,4.671 -0.405,4.671L-2.15,4.671C-2.167,4.867 -2.217,5.063 -2.319,5.239L-3.338,6.984L-0.405,6.984C2.787,6.984 5.376,4.394 5.376,1.202C5.376,-1.849 3.006,-4.324 0,-4.532" style="fill-rule:nonzero;"/>
        </g>
        <g transform="matrix(1,0,0,1,24.6587,24.7914)">
            <path d="M0,1.735L1.349,-0.578L1.417,-0.693L-1.706,-0.693L-1.262,-1.58L-0.76,-2.583L1.129,-6.362L1.417,-6.937L-6.388,-6.937L-6.388,1.649L-4.047,1.649L-4.047,8.672L-1.17,3.742L-0.585,2.738L0,1.735Z" style="fill-rule:nonzero;"/>
        </g>
        <g transform="matrix(1,0,0,1,18.0752,35.0018)">
            <path d="M0,-4.159L-1.577,-3.532C-2.101,-3.32 -2.512,-3.138 -2.776,-2.751L-2.777,-2.751C-3.042,-2.363 -3.17,-1.851 -3.075,-1.343C-2.979,-0.834 -2.687,-0.41 -2.29,-0.138C-1.893,0.133 -1.392,0.252 -0.883,0.156C-0.375,0.061 0.056,-0.244 0.321,-0.632C0.586,-1.019 0.624,-1.827 0.633,-2.033L0.633,-4.411L0.525,-4.368L0,-4.159Z" style="fill-rule:nonzero;"/>
        </g>
        <g transform="matrix(1,0,0,1,26.7695,35.0018)">
            <path d="M0,-4.159L-1.576,-3.532C-2.1,-3.32 -2.512,-3.138 -2.776,-2.751C-3.041,-2.363 -3.17,-1.851 -3.074,-1.343C-2.979,-0.834 -2.687,-0.41 -2.29,-0.138C-1.893,0.133 -1.392,0.252 -0.883,0.156C-0.374,0.061 0.056,-0.244 0.321,-0.632C0.586,-1.019 0.624,-1.827 0.633,-2.033L0.633,-4.411L0.525,-4.368L0,-4.159Z" style="fill-rule:nonzero;"/>
        </g>
        <g transform="matrix(1,0,0,1,9.3804,35.0018)">
            <path d="M0,-4.159L-1.577,-3.532C-2.1,-3.32 -2.511,-3.138 -2.776,-2.751C-3.042,-2.363 -3.17,-1.851 -3.074,-1.343C-2.979,-0.834 -2.687,-0.41 -2.29,-0.138C-1.893,0.133 -1.392,0.252 -0.883,0.156C-0.375,0.061 0.056,-0.244 0.321,-0.632C0.586,-1.019 0.624,-1.827 0.633,-2.033L0.633,-4.411L0.525,-4.368L0,-4.159Z" style="fill-rule:nonzero;"/>
        </g>
    </g>
</svg>
