<?xml version="1.0" encoding="UTF-8" standalone="no"?>
<!DOCTYPE svg PUBLIC "-//W3C//DTD SVG 1.1//EN" "http://www.w3.org/Graphics/SVG/1.1/DTD/svg11.dtd">
<svg width="100%" height="100%" viewBox="0 0 36 36" version="1.1" xmlns="http://www.w3.org/2000/svg" xmlns:xlink="http://www.w3.org/1999/xlink" xml:space="preserve" xmlns:serif="http://www.serif.com/" style="fill-rule:evenodd;clip-rule:evenodd;stroke-linejoin:round;stroke-miterlimit:2;">
    <g id="Слой-2" serif:id="Слой 2">
        <g transform="matrix(1,0,0,1,5.2842,8.035)">
            <path d="M0,2.61C0,0 2.121,-2.122 4.731,-2.122C6.835,-2.122 8.6,-0.735 9.214,1.167C9.799,0.728 10.428,0.359 11.09,0.049L11.041,0L11.041,-3.699L7.342,-3.699L4.731,-6.309L2.121,-3.699L-1.577,-3.699L-1.577,0L-4.187,2.61L-1.577,5.22L-1.577,8.919L0.516,8.919C0.911,8.039 1.446,7.237 2.092,6.535C0.831,5.685 0,4.243 0,2.61" style="fill-rule:nonzero;"/>
        </g>
        <g transform="matrix(1,0,0,1,29.3945,20.5848)">
            <path d="M0,-4.534C-0.786,-8.523 -4.29,-11.517 -8.499,-11.517C-9.552,-11.517 -10.552,-11.311 -11.486,-10.966C-12.757,-10.497 -13.895,-9.754 -14.806,-8.784C-15.35,-8.207 -15.818,-7.556 -16.187,-6.847C-17.593,-6.697 -18.868,-6.122 -19.893,-5.26C-20.573,-4.689 -21.141,-3.992 -21.561,-3.203C-22.077,-2.233 -22.374,-1.129 -22.374,0.045C-22.374,3.872 -19.263,6.983 -15.436,6.983L-12.65,6.983C-12.652,6.953 -12.659,6.925 -12.659,6.896L-12.659,4.67L-15.436,4.67C-17.991,4.67 -20.061,2.6 -20.061,0.045C-20.061,-0.477 -19.956,-0.97 -19.796,-1.438C-19.724,-1.652 -19.638,-1.856 -19.536,-2.054C-18.77,-3.548 -17.231,-4.58 -15.436,-4.58L-14.615,-4.58C-14.323,-5.601 -13.784,-6.513 -13.07,-7.256C-11.915,-8.456 -10.299,-9.205 -8.499,-9.205C-4.983,-9.205 -2.139,-6.361 -2.139,-2.846L-2.139,-2.267L-0.405,-2.267C1.515,-2.267 3.064,-0.718 3.064,1.201C3.064,3.121 1.515,4.67 -0.405,4.67L-2.16,4.67C-2.177,4.866 -2.227,5.061 -2.33,5.237L-3.348,6.983L-0.405,6.983C2.787,6.983 5.376,4.393 5.376,1.201C5.376,-1.851 3.006,-4.326 0,-4.534" style="fill-rule:nonzero;"/>
        </g>
        <g transform="matrix(1,0,0,1,23.2173,29.1485)">
            <path d="M0,-4.897L0.501,-5.9L2.394,-9.686L2.678,-10.253L-5.127,-10.253L-5.127,-1.668L-2.786,-1.668L-2.786,5.356L0.091,0.425L1.261,-1.581L2.61,-3.894L2.678,-4.009L-0.444,-4.009L0,-4.897Z" style="fill-rule:nonzero;"/>
        </g>
    </g>
</svg>
