<?xml version="1.0" encoding="UTF-8" standalone="no"?>
<!DOCTYPE svg PUBLIC "-//W3C//DTD SVG 1.1//EN" "http://www.w3.org/Graphics/SVG/1.1/DTD/svg11.dtd">
<svg width="100%" height="100%" viewBox="0 0 36 36" version="1.1" xmlns="http://www.w3.org/2000/svg" xmlns:xlink="http://www.w3.org/1999/xlink" xml:space="preserve" xmlns:serif="http://www.serif.com/" style="fill-rule:evenodd;clip-rule:evenodd;stroke-linejoin:round;stroke-miterlimit:2;">
    <g id="Слой-2" serif:id="Слой 2">
        <g transform="matrix(1,0,0,1,6.6045,9.1927)">
            <path d="M0,1.195C0,-2.617 2.501,-5.841 5.956,-6.921C5.147,-7.177 4.296,-7.312 3.403,-7.312C-1.293,-7.312 -5.104,-3.501 -5.104,1.195C-5.104,4.308 -3.425,7.024 -0.928,8.507C-0.508,7.287 0.167,6.185 1.04,5.268C0.379,4.058 0,2.672 0,1.195" style="fill-rule:nonzero;"/>
        </g>
        <g transform="matrix(1,0,0,1,29.5645,20.5848)">
            <path d="M0,-4.534C-0.786,-8.523 -4.29,-11.517 -8.499,-11.517C-11.84,-11.517 -14.743,-9.621 -16.188,-6.847C-17.999,-6.654 -19.596,-5.759 -20.715,-4.445C-21.305,-3.754 -21.759,-2.947 -22.042,-2.061C-22.254,-1.396 -22.374,-0.69 -22.374,0.045C-22.374,3.872 -19.264,6.983 -15.436,6.983L-12.64,6.983C-12.642,6.953 -12.648,6.925 -12.648,6.896L-12.648,4.67L-15.436,4.67C-17.992,4.67 -20.062,2.6 -20.062,0.045C-20.062,-0.573 -19.936,-1.159 -19.716,-1.698C-19.525,-2.166 -19.25,-2.585 -18.925,-2.962C-18.077,-3.945 -16.837,-4.58 -15.436,-4.58L-14.615,-4.58C-13.852,-7.251 -11.413,-9.205 -8.499,-9.205C-4.983,-9.205 -2.139,-6.361 -2.139,-2.846L-2.139,-2.267L-0.405,-2.267C1.515,-2.267 3.064,-0.718 3.064,1.201C3.064,3.121 1.515,4.67 -0.405,4.67L-2.15,4.67C-2.167,4.866 -2.217,5.061 -2.319,5.237L-3.338,6.983L-0.405,6.983C2.787,6.983 5.376,4.393 5.376,1.201C5.376,-1.851 3.006,-4.326 0,-4.534" style="fill-rule:nonzero;"/>
        </g>
        <g transform="matrix(1,0,0,1,23.397,29.1485)">
            <path d="M0,-4.897L0.501,-5.9L2.391,-9.678L2.678,-10.253L-5.126,-10.253L-5.126,-1.668L-2.785,-1.668L-2.785,5.356L0.091,0.425L0.676,-0.578L1.262,-1.581L2.611,-3.894L2.678,-4.009L-0.444,-4.009L0,-4.897Z" style="fill-rule:nonzero;"/>
        </g>
    </g>
</svg>
