<?xml version="1.0" encoding="UTF-8" standalone="no"?>
<!DOCTYPE svg PUBLIC "-//W3C//DTD SVG 1.1//EN" "http://www.w3.org/Graphics/SVG/1.1/DTD/svg11.dtd">
<svg width="100%" height="100%" viewBox="0 0 36 36" version="1.1" xmlns="http://www.w3.org/2000/svg" xmlns:xlink="http://www.w3.org/1999/xlink" xml:space="preserve" xmlns:serif="http://www.serif.com/" style="fill-rule:evenodd;clip-rule:evenodd;stroke-linejoin:round;stroke-miterlimit:2;">
    <g id="Слой-2" serif:id="Слой 2">
        <g transform="matrix(1,0,0,1,6.6045,11.3875)">
            <path d="M0,1.196C0,-2.616 2.501,-5.84 5.956,-6.92C5.147,-7.176 4.296,-7.312 3.403,-7.312C-1.293,-7.312 -5.104,-3.5 -5.104,1.196C-5.104,4.308 -3.425,7.025 -0.928,8.508C-0.508,7.288 0.167,6.186 1.04,5.268C0.379,4.059 0,2.673 0,1.196" style="fill-rule:nonzero;"/>
        </g>
        <g transform="matrix(1,0,0,1,29.1597,13.5762)">
            <path d="M0,13.874L-15.031,13.874C-17.587,13.874 -19.657,11.805 -19.657,9.249C-19.657,8.632 -19.531,8.045 -19.311,7.507C-19.121,7.038 -18.845,6.619 -18.52,6.242C-17.672,5.259 -16.432,4.624 -15.031,4.624L-14.21,4.624C-13.447,1.953 -11.008,-0.001 -8.094,-0.001C-4.579,-0.001 -1.734,2.844 -1.734,6.358L-1.734,6.937L0,6.937C1.919,6.937 3.469,8.486 3.469,10.405C3.469,12.325 1.919,13.874 0,13.874M0.405,4.67C-0.381,0.681 -3.885,-2.313 -8.094,-2.313C-11.436,-2.313 -14.338,-0.417 -15.783,2.358C-17.594,2.55 -19.191,3.445 -20.311,4.759C-20.9,5.451 -21.354,6.258 -21.637,7.144C-21.849,7.809 -21.969,8.514 -21.969,9.249C-21.969,13.076 -18.859,16.187 -15.031,16.187L0,16.187C3.191,16.187 5.781,13.597 5.781,10.405C5.781,7.353 3.411,4.878 0.405,4.67" style="fill-rule:nonzero;"/>
        </g>
    </g>
</svg>
