<?xml version="1.0" encoding="UTF-8"?>
<!-- Generated by Pixelmator Pro 3.3.2 -->
<svg width="50" height="50" viewBox="0 0 50 50" xmlns="http://www.w3.org/2000/svg" xmlns:xlink="http://www.w3.org/1999/xlink">
    <path id="path1" fill="#000000" stroke="none" d="M 50 23.4375 C 50.000519 26.489792 48.223408 29.262865 45.450001 30.5375 C 44.905674 29.582298 44.220951 28.714281 43.418751 27.9625 C 45.917839 27.281635 47.391804 24.703775 46.710938 22.204689 C 46.030075 19.705599 43.452213 18.231636 40.953125 18.9125 C 40.516125 19.030951 40.049232 18.95402 39.67334 18.701626 C 39.297447 18.44923 39.049519 18.046194 38.993748 17.596874 C 38.542385 13.941593 35.992569 10.889233 32.475983 9.794506 C 28.959393 8.699783 25.127598 9.765537 22.68125 12.518749 C 21.34594 12.45747 20.008007 12.54974 18.69375 12.793751 C 21.146168 8.277653 26.11162 5.72147 31.212133 6.349377 C 36.312645 6.97728 40.509872 10.661442 41.793747 15.637501 C 43.930923 15.529648 46.018791 16.303158 47.569828 17.777412 C 49.120869 19.251667 49.999298 21.297606 50 23.4375 Z"/>
    <path id="path2" fill="#000000" stroke="none" d="M 21.875 15.625 C 29.037893 15.623623 35.057247 21.006458 35.853123 28.125 L 35.9375 28.125 C 40.252224 28.125 43.75 31.622776 43.75 35.9375 C 43.75 40.252224 40.252224 43.75 35.9375 43.75 L 9.375 43.75 C 4.344838 43.753799 0.208125 39.787148 0.00088 34.761257 C -0.206365 29.735363 3.589727 25.441603 8.603125 25.03125 C 10.582285 19.39677 15.903028 15.625771 21.875 15.625 Z M 32.8125 29.6875 C 32.816322 24.17557 28.718063 19.522017 23.249851 18.829165 C 17.781637 18.136312 12.652259 21.620674 11.28125 26.959375 C 11.096394 27.67938 10.429873 28.169468 9.6875 28.13125 C 7.427972 28.030935 5.290545 29.159195 4.098615 31.08139 C 2.906685 33.003586 2.84625 35.419758 3.940592 37.399139 C 5.034934 39.378521 7.113282 40.612228 9.375 40.625 L 35.9375 40.625 C 37.751785 40.620804 39.400734 39.570023 40.170879 37.927303 C 40.941025 36.284584 40.694054 34.344952 39.536827 32.947639 C 38.379601 31.550327 36.519947 30.946287 34.762497 31.396875 C 34.290806 31.517687 33.789749 31.411695 33.407391 31.110218 C 33.025024 30.808739 32.805065 30.346239 32.8125 29.859375 L 32.8125 29.6875 Z"/>
</svg>
