<?xml version="1.0" encoding="UTF-8" standalone="no"?>
<!DOCTYPE svg PUBLIC "-//W3C//DTD SVG 1.1//EN" "http://www.w3.org/Graphics/SVG/1.1/DTD/svg11.dtd">
<svg width="100%" height="100%" viewBox="0 0 36 36" version="1.1" xmlns="http://www.w3.org/2000/svg" xmlns:xlink="http://www.w3.org/1999/xlink" xml:space="preserve" xmlns:serif="http://www.serif.com/" style="fill-rule:evenodd;clip-rule:evenodd;stroke-linejoin:round;stroke-miterlimit:2;">
    <g id="Слой-2" serif:id="Слой 2">
        <g transform="matrix(1,0,0,1,5.2842,10.2308)">
            <path d="M0,2.61C0,0 2.121,-2.122 4.731,-2.122C6.835,-2.122 8.6,-0.735 9.214,1.166C9.798,0.728 10.428,0.359 11.09,0.049L11.041,0L11.041,-3.699L7.342,-3.699L4.731,-6.309L2.121,-3.699L-1.577,-3.699L-1.577,0L-4.187,2.61L-1.577,5.22L-1.577,8.919L0.516,8.919C0.911,8.039 1.446,7.236 2.092,6.535C0.831,5.685 0,4.243 0,2.61" style="fill-rule:nonzero;"/>
        </g>
        <g transform="matrix(1,0,0,1,28.9897,13.5762)">
            <path d="M0,13.874L-15.031,13.874C-17.586,13.874 -19.656,11.805 -19.656,9.249C-19.656,8.727 -19.551,8.234 -19.392,7.766C-19.319,7.553 -19.233,7.349 -19.131,7.15C-18.365,5.657 -16.827,4.624 -15.031,4.624L-14.21,4.624C-13.918,3.603 -13.379,2.69 -12.665,1.948C-11.51,0.748 -9.894,-0.001 -8.094,-0.001C-4.579,-0.001 -1.734,2.844 -1.734,6.358L-1.734,6.937L0,6.937C1.919,6.937 3.469,8.486 3.469,10.405C3.469,12.325 1.919,13.874 0,13.874M0.405,4.67C-0.381,0.681 -3.885,-2.313 -8.094,-2.313C-9.147,-2.313 -10.147,-2.106 -11.081,-1.762C-12.353,-1.293 -13.49,-0.549 -14.401,0.419C-14.945,0.998 -15.413,1.647 -15.783,2.358C-17.188,2.507 -18.463,3.082 -19.489,3.944C-20.168,4.515 -20.736,5.212 -21.156,6.001C-21.672,6.971 -21.969,8.075 -21.969,9.249C-21.969,13.076 -18.858,16.187 -15.031,16.187L0,16.187C3.191,16.187 5.781,13.597 5.781,10.405C5.781,7.353 3.411,4.878 0.405,4.67" style="fill-rule:nonzero;"/>
        </g>
    </g>
</svg>
