<?xml version="1.0" encoding="UTF-8"?>
<!-- Generated by Pixelmator Pro 3.3.2 -->
<svg width="50" height="50" viewBox="0 0 50 50" xmlns="http://www.w3.org/2000/svg" xmlns:xlink="http://www.w3.org/1999/xlink">
    <path id="path1" fill="#000000" stroke="none" d="M 25 10.9375 C 32.162895 10.936123 38.182247 16.318958 38.978123 23.4375 L 39.0625 23.4375 C 43.377224 23.4375 46.875 26.935276 46.875 31.25 C 46.875 35.564724 43.377224 39.0625 39.0625 39.0625 L 12.5 39.0625 C 7.469838 39.066299 3.333125 35.099648 3.12588 30.073757 C 2.918635 25.047863 6.714727 20.754103 11.728125 20.34375 C 13.707285 14.70927 19.028028 10.938271 25 10.9375 Z M 35.9375 25 C 35.941322 19.48807 31.843063 14.834518 26.374851 14.141666 C 20.906637 13.448814 15.777259 16.933174 14.40625 22.271875 C 14.221394 22.99188 13.554873 23.481968 12.8125 23.44375 C 10.552972 23.343435 8.415545 24.471695 7.223615 26.39389 C 6.031685 28.316084 5.971251 30.73226 7.065592 32.711639 C 8.159934 34.691021 10.238282 35.924728 12.5 35.9375 L 39.0625 35.9375 C 40.876785 35.933304 42.525734 34.882523 43.295879 33.239803 C 44.066025 31.597084 43.819054 29.657452 42.661827 28.260139 C 41.504601 26.862827 39.644947 26.258787 37.887497 26.709375 C 37.415806 26.830187 36.914749 26.724195 36.532391 26.422718 C 36.150024 26.121239 35.930065 25.658739 35.9375 25.171875 L 35.9375 25 Z"/>
</svg>
