<?xml version="1.0" encoding="UTF-8" standalone="no"?>
<!DOCTYPE svg PUBLIC "-//W3C//DTD SVG 1.1//EN" "http://www.w3.org/Graphics/SVG/1.1/DTD/svg11.dtd">
<svg width="100%" height="100%" viewBox="0 0 36 36" version="1.1" xmlns="http://www.w3.org/2000/svg" xmlns:xlink="http://www.w3.org/1999/xlink" xml:space="preserve" xmlns:serif="http://www.serif.com/" style="fill-rule:evenodd;clip-rule:evenodd;stroke-linejoin:round;stroke-miterlimit:2;">
    <g id="Слой-2" serif:id="Слой 2">
        <g transform="matrix(1,0,0,1,5.2842,6.9945)">
            <path d="M0,2.61C0,0 2.121,-2.121 4.731,-2.121C6.835,-2.121 8.6,-0.735 9.214,1.167C9.799,0.727 10.428,0.359 11.09,0.048L11.041,0L11.041,-3.699L7.342,-3.699L4.731,-6.309L2.121,-3.699L-1.577,-3.699L-1.577,0L-4.187,2.61L-1.577,5.22L-1.577,8.919L0.516,8.919C0.911,8.04 1.446,7.237 2.092,6.535C0.831,5.685 0,4.243 0,2.61" style="fill-rule:nonzero;"/>
        </g>
        <g transform="matrix(1,0,0,1,29.3945,19.5427)">
            <path d="M0,-4.532C-0.786,-8.521 -4.29,-11.516 -8.499,-11.516C-9.552,-11.516 -10.552,-11.309 -11.486,-10.965C-12.757,-10.496 -13.895,-9.752 -14.806,-8.783C-15.35,-8.205 -15.818,-7.555 -16.187,-6.845C-17.593,-6.695 -18.868,-6.121 -19.894,-5.259C-20.573,-4.687 -21.141,-3.991 -21.561,-3.201C-22.077,-2.231 -22.374,-1.128 -22.374,0.046C-22.374,3.873 -19.263,6.984 -15.436,6.984L-12.65,6.984C-12.652,6.954 -12.659,6.927 -12.659,6.898L-12.659,4.671L-15.436,4.671C-17.991,4.671 -20.061,2.602 -20.061,0.046C-20.061,-0.475 -19.956,-0.969 -19.796,-1.436C-19.724,-1.65 -19.638,-1.854 -19.536,-2.053C-18.77,-3.547 -17.231,-4.579 -15.436,-4.579L-14.615,-4.579C-14.323,-5.599 -13.784,-6.512 -13.07,-7.255C-11.915,-8.455 -10.299,-9.204 -8.499,-9.204C-4.983,-9.204 -2.139,-6.359 -2.139,-2.845L-2.139,-2.266L-0.405,-2.266C1.515,-2.266 3.064,-0.717 3.064,1.202C3.064,3.122 1.515,4.671 -0.405,4.671L-2.16,4.671C-2.177,4.867 -2.227,5.063 -2.33,5.239L-3.348,6.984L-0.405,6.984C2.787,6.984 5.376,4.394 5.376,1.202C5.376,-1.849 3.006,-4.324 0,-4.532" style="fill-rule:nonzero;"/>
        </g>
        <g transform="matrix(1,0,0,1,24.4785,24.7914)">
            <path d="M0,1.735L1.349,-0.578L1.417,-0.693L-1.705,-0.693L-1.261,-1.58L-0.76,-2.583L1.417,-6.937L-6.388,-6.937L-6.388,1.649L-4.047,1.649L-4.047,8.672L-1.17,3.742L-0.584,2.738L0,1.735Z" style="fill-rule:nonzero;"/>
        </g>
        <g transform="matrix(1,0,0,1,17.9053,35.0018)">
            <path d="M0,-4.159L-1.577,-3.532C-2.1,-3.32 -2.512,-3.138 -2.776,-2.751C-3.042,-2.363 -3.17,-1.851 -3.074,-1.343C-2.979,-0.834 -2.687,-0.41 -2.29,-0.138C-1.893,0.133 -1.392,0.252 -0.883,0.156C-0.375,0.061 0.056,-0.244 0.321,-0.632C0.586,-1.018 0.624,-1.827 0.633,-2.033L0.633,-4.411L0.525,-4.368L0,-4.159Z" style="fill-rule:nonzero;"/>
        </g>
        <g transform="matrix(1,0,0,1,26.6001,35.0018)">
            <path d="M0,-4.159L-1.577,-3.532C-2.101,-3.32 -2.512,-3.138 -2.777,-2.751C-3.042,-2.363 -3.17,-1.851 -3.075,-1.343C-2.979,-0.834 -2.687,-0.41 -2.29,-0.138C-1.893,0.133 -1.392,0.252 -0.883,0.156C-0.375,0.061 0.056,-0.244 0.321,-0.632C0.586,-1.019 0.624,-1.827 0.633,-2.033L0.633,-4.411L0.525,-4.368L0,-4.159Z" style="fill-rule:nonzero;"/>
        </g>
        <g transform="matrix(1,0,0,1,9.2104,35.0018)">
            <path d="M0,-4.159L-1.576,-3.532C-2.1,-3.32 -2.511,-3.138 -2.776,-2.751C-3.041,-2.363 -3.169,-1.851 -3.074,-1.343C-2.979,-0.834 -2.687,-0.41 -2.29,-0.138C-1.893,0.133 -1.391,0.252 -0.883,0.156C-0.374,0.061 0.056,-0.244 0.321,-0.632C0.586,-1.018 0.624,-1.827 0.633,-2.033L0.633,-4.411L0.526,-4.368L0,-4.159Z" style="fill-rule:nonzero;"/>
        </g>
    </g>
</svg>
